<?xml version="1.0" encoding="UTF-8"?>
<svg width="24px" height="24px" viewBox="0 0 24 24" version="1.1" xmlns="http://www.w3.org/2000/svg">
    <g stroke="none" stroke-width="1" fill="none" fill-rule="evenodd">
        <path d="M12,3 C16.418,3 20,4.34 20,6 L20,6 L20,18 C20,19.66 16.418,21 12,21 C7.582,21 4,19.66 4,18 L4,18 L4,6 C4,4.34 7.582,3 12,3 Z M12,17 C8.134,17 5,15.88 5,14.5 L5,14.5 L5,18 C5,19.38 8.134,20.5 12,20.5 C15.866,20.5 19,19.38 19,18 L19,18 L19,14.5 C19,15.88 15.866,17 12,17 Z M12,10 C8.134,10 5,8.88 5,7.5 L5,7.5 L5,11 C5,12.38 8.134,13.5 12,13.5 C15.866,13.5 19,12.38 19,11 L19,11 L19,7.5 C19,8.88 15.866,10 12,10 Z M12,3.5 C8.134,3.5 5,4.62 5,6 C5,7.38 8.134,8.5 12,8.5 C15.866,8.5 19,7.38 19,6 C19,4.62 15.866,3.5 12,3.5 Z" fill="#3498db" fill-rule="nonzero"></path>
    </g>
</svg>
